<svg id="visual" viewBox="0 0 960 540" width="960" height="540" xmlns="http://www.w3.org/2000/svg" xmlns:xlink="http://www.w3.org/1999/xlink" version="1.1"><path d="M0 322L22.8 324.7C45.7 327.3 91.3 332.7 137 337.8C182.7 343 228.3 348 274 344.5C319.7 341 365.3 329 411.2 330.7C457 332.3 503 347.7 548.8 349.5C594.7 351.3 640.3 339.7 686 342.7C731.7 345.7 777.3 363.3 823 367C868.7 370.7 914.3 360.3 937.2 355.2L960 350L960 541L937.2 541C914.3 541 868.7 541 823 541C777.3 541 731.7 541 686 541C640.3 541 594.7 541 548.8 541C503 541 457 541 411.2 541C365.3 541 319.7 541 274 541C228.3 541 182.7 541 137 541C91.3 541 45.7 541 22.8 541L0 541Z" fill="#4ea5dd"></path><path d="M0 379L22.8 382.5C45.7 386 91.3 393 137 393.2C182.7 393.3 228.3 386.7 274 385.8C319.7 385 365.3 390 411.2 386.3C457 382.7 503 370.3 548.8 367.2C594.7 364 640.3 370 686 371.2C731.7 372.3 777.3 368.7 823 371C868.7 373.3 914.3 381.7 937.2 385.8L960 390L960 541L937.2 541C914.3 541 868.7 541 823 541C777.3 541 731.7 541 686 541C640.3 541 594.7 541 548.8 541C503 541 457 541 411.2 541C365.3 541 319.7 541 274 541C228.3 541 182.7 541 137 541C91.3 541 45.7 541 22.8 541L0 541Z" fill="#3a8ac8"></path><path d="M0 421L22.8 423C45.7 425 91.3 429 137 427.5C182.7 426 228.3 419 274 410.3C319.7 401.7 365.3 391.3 411.2 388.8C457 386.3 503 391.7 548.8 399.8C594.7 408 640.3 419 686 419.7C731.7 420.3 777.3 410.7 823 408C868.7 405.3 914.3 409.7 937.2 411.8L960 414L960 541L937.2 541C914.3 541 868.7 541 823 541C777.3 541 731.7 541 686 541C640.3 541 594.7 541 548.8 541C503 541 457 541 411.2 541C365.3 541 319.7 541 274 541C228.3 541 182.7 541 137 541C91.3 541 45.7 541 22.8 541L0 541Z" fill="#2b70b2"></path><path d="M0 462L22.8 462.5C45.7 463 91.3 464 137 462.7C182.7 461.3 228.3 457.7 274 456.8C319.7 456 365.3 458 411.2 459.7C457 461.3 503 462.7 548.8 458.8C594.7 455 640.3 446 686 445.3C731.7 444.7 777.3 452.3 823 451.5C868.7 450.7 914.3 441.3 937.2 436.7L960 432L960 541L937.2 541C914.3 541 868.7 541 823 541C777.3 541 731.7 541 686 541C640.3 541 594.7 541 548.8 541C503 541 457 541 411.2 541C365.3 541 319.7 541 274 541C228.3 541 182.7 541 137 541C91.3 541 45.7 541 22.8 541L0 541Z" fill="#20569b"></path><path d="M0 458L22.8 459.2C45.7 460.3 91.3 462.7 137 464.7C182.7 466.7 228.3 468.3 274 471.8C319.7 475.3 365.3 480.7 411.2 477C457 473.3 503 460.7 548.8 456.2C594.7 451.7 640.3 455.3 686 458.5C731.7 461.7 777.3 464.3 823 468.2C868.7 472 914.3 477 937.2 479.5L960 482L960 541L937.2 541C914.3 541 868.7 541 823 541C777.3 541 731.7 541 686 541C640.3 541 594.7 541 548.8 541C503 541 457 541 411.2 541C365.3 541 319.7 541 274 541C228.3 541 182.7 541 137 541C91.3 541 45.7 541 22.8 541L0 541Z" fill="#1a3d83"></path><path d="M0 492L22.8 495C45.7 498 91.3 504 137 502.5C182.7 501 228.3 492 274 488.2C319.7 484.3 365.3 485.7 411.2 486.7C457 487.7 503 488.3 548.8 487.8C594.7 487.3 640.3 485.7 686 485.5C731.7 485.3 777.3 486.7 823 490.2C868.7 493.7 914.3 499.3 937.2 502.2L960 505L960 541L937.2 541C914.3 541 868.7 541 823 541C777.3 541 731.7 541 686 541C640.3 541 594.7 541 548.8 541C503 541 457 541 411.2 541C365.3 541 319.7 541 274 541C228.3 541 182.7 541 137 541C91.3 541 45.7 541 22.8 541L0 541Z" fill="#16256a"></path></svg>