<svg id="visual" viewBox="0 0 540 960" width="540" height="960" xmlns="http://www.w3.org/2000/svg" xmlns:xlink="http://www.w3.org/1999/xlink" version="1.1"><path d="M0 126L22.5 122.8C45 119.7 90 113.3 135 113.3C180 113.3 225 119.7 270 119.7C315 119.7 360 113.3 405 108.5C450 103.7 495 100.3 517.5 98.7L540 97L540 0L517.5 0C495 0 450 0 405 0C360 0 315 0 270 0C225 0 180 0 135 0C90 0 45 0 22.5 0L0 0Z" fill="#4ea5dd"></path><path d="M0 222L22.5 215.5C45 209 90 196 135 197.5C180 199 225 215 270 216.7C315 218.3 360 205.7 405 197.7C450 189.7 495 186.3 517.5 184.7L540 183L540 95L517.5 96.7C495 98.3 450 101.7 405 106.5C360 111.3 315 117.7 270 117.7C225 117.7 180 111.3 135 111.3C90 111.3 45 117.7 22.5 120.8L0 124Z" fill="#3a8ac8"></path><path d="M0 366L22.5 359.5C45 353 90 340 135 341.5C180 343 225 359 270 362.3C315 365.7 360 356.3 405 348.3C450 340.3 495 333.7 517.5 330.3L540 327L540 181L517.5 182.7C495 184.3 450 187.7 405 195.7C360 203.7 315 216.3 270 214.7C225 213 180 197 135 195.5C90 194 45 207 22.5 213.5L0 220Z" fill="#2b70b2"></path><path d="M0 567L22.5 578.3C45 589.7 90 612.3 135 622C180 631.7 225 628.3 270 623.5C315 618.7 360 612.3 405 604.3C450 596.3 495 586.7 517.5 581.8L540 577L540 325L517.5 328.3C495 331.7 450 338.3 405 346.3C360 354.3 315 363.7 270 360.3C225 357 180 341 135 339.5C90 338 45 351 22.5 357.5L0 364Z" fill="#20569b"></path><path d="M0 683L22.5 692.5C45 702 90 721 135 724.2C180 727.3 225 714.7 270 709.8C315 705 360 708 405 701.5C450 695 495 679 517.5 671L540 663L540 575L517.5 579.8C495 584.7 450 594.3 405 602.3C360 610.3 315 616.7 270 621.5C225 626.3 180 629.7 135 620C90 610.3 45 587.7 22.5 576.3L0 565Z" fill="#1a3d83"></path><path d="M0 961L22.5 961C45 961 90 961 135 961C180 961 225 961 270 961C315 961 360 961 405 961C450 961 495 961 517.5 961L540 961L540 661L517.5 669C495 677 450 693 405 699.5C360 706 315 703 270 707.8C225 712.7 180 725.3 135 722.2C90 719 45 700 22.5 690.5L0 681Z" fill="#16256a"></path></svg>