<svg id="visual" viewBox="0 0 960 540" width="960" height="540" xmlns="http://www.w3.org/2000/svg" xmlns:xlink="http://www.w3.org/1999/xlink" version="1.1">
<path d="M0 322L22.8 324.7C45.7 327.3 91.3 332.7 137 337.8C182.7 343 228.3 348 274 344.5C319.7 341 365.3 329 411.2 330.7C457 332.3 503 347.7 548.8 349.5C594.7 351.3 640.3 339.7 686 342.7C731.7 345.7 777.3 363.3 823 367C868.7 370.7 914.3 360.3 937.2 355.2L960 350L960 541L937.2 541C914.3 541 868.7 541 823 541C777.3 541 731.7 541 686 541C640.3 541 594.7 541 548.8 541C503 541 457 541 411.2 541C365.3 541 319.7 541 274 541C228.3 541 182.7 541 137 541C91.3 541 45.7 541 22.8 541L0 541Z" fill="#4ea5dd"></path>
</svg>
