<svg id="visual" viewBox="0 0 960 540" width="960" height="540" xmlns="http://www.w3.org/2000/svg" xmlns:xlink="http://www.w3.org/1999/xlink" version="1.1">
<path d="M0 379L22.8 382.5C45.7 386 91.3 393 137 393.2C182.7 393.3 228.3 386.7 274 385.8C319.7 385 365.3 390 411.2 386.3C457 382.7 503 370.3 548.8 367.2C594.7 364 640.3 370 686 371.2C731.7 372.3 777.3 368.7 823 371C868.7 373.3 914.3 381.7 937.2 385.8L960 390L960 541L937.2 541C914.3 541 868.7 541 823 541C777.3 541 731.7 541 686 541C640.3 541 594.7 541 548.8 541C503 541 457 541 411.2 541C365.3 541 319.7 541 274 541C228.3 541 182.7 541 137 541C91.3 541 45.7 541 22.8 541L0 541Z" fill="#3a8ac8"></path>
</svg>
