<svg id="visual" viewBox="0 0 960 540" width="960" height="540" xmlns="http://www.w3.org/2000/svg" xmlns:xlink="http://www.w3.org/1999/xlink" version="1.1">
<path d="M0 458L22.8 459.2C45.7 460.3 91.3 462.7 137 464.7C182.7 466.7 228.3 468.3 274 471.8C319.7 475.3 365.3 480.7 411.2 477C457 473.3 503 460.7 548.8 456.2C594.7 451.7 640.3 455.3 686 458.5C731.7 461.7 777.3 464.3 823 468.2C868.7 472 914.3 477 937.2 479.5L960 482L960 541L937.2 541C914.3 541 868.7 541 823 541C777.3 541 731.7 541 686 541C640.3 541 594.7 541 548.8 541C503 541 457 541 411.2 541C365.3 541 319.7 541 274 541C228.3 541 182.7 541 137 541C91.3 541 45.7 541 22.8 541L0 541Z" fill="#1a3d83"></path>
</svg>
