<svg id="visual" viewBox="0 0 960 540" width="960" height="540" xmlns="http://www.w3.org/2000/svg" xmlns:xlink="http://www.w3.org/1999/xlink" version="1.1">
<path d="M0 492L22.8 495C45.7 498 91.3 504 137 502.5C182.7 501 228.3 492 274 488.2C319.7 484.3 365.3 485.7 411.2 486.7C457 487.7 503 488.3 548.8 487.8C594.7 487.3 640.3 485.7 686 485.5C731.7 485.3 777.3 486.7 823 490.2C868.7 493.7 914.3 499.3 937.2 502.2L960 505L960 541L937.2 541C914.3 541 868.7 541 823 541C777.3 541 731.7 541 686 541C640.3 541 594.7 541 548.8 541C503 541 457 541 411.2 541C365.3 541 319.7 541 274 541C228.3 541 182.7 541 137 541C91.3 541 45.7 541 22.8 541L0 541Z" fill="#16256a"></path>
</svg>
