<svg id="visual" viewBox="0 0 960 540" width="960" height="540" xmlns="http://www.w3.org/2000/svg" xmlns:xlink="http://www.w3.org/1999/xlink" version="1.1">
<path d="M0 462L22.8 462.5C45.7 463 91.3 464 137 462.7C182.7 461.3 228.3 457.7 274 456.8C319.7 456 365.3 458 411.2 459.7C457 461.3 503 462.7 548.8 458.8C594.7 455 640.3 446 686 445.3C731.7 444.7 777.3 452.3 823 451.5C868.7 450.7 914.3 441.3 937.2 436.7L960 432L960 541L937.2 541C914.3 541 868.7 541 823 541C777.3 541 731.7 541 686 541C640.3 541 594.7 541 548.8 541C503 541 457 541 411.2 541C365.3 541 319.7 541 274 541C228.3 541 182.7 541 137 541C91.3 541 45.7 541 22.8 541L0 541Z" fill="#20569b"></path>
</svg>
