<svg id="visual" viewBox="0 0 960 540" width="960" height="540" xmlns="http://www.w3.org/2000/svg" xmlns:xlink="http://www.w3.org/1999/xlink" version="1.1">
<path d="M0 421L22.8 423C45.7 425 91.3 429 137 427.5C182.7 426 228.3 419 274 410.3C319.7 401.7 365.3 391.3 411.2 388.8C457 386.3 503 391.7 548.8 399.8C594.7 408 640.3 419 686 419.7C731.7 420.3 777.3 410.7 823 408C868.7 405.3 914.3 409.7 937.2 411.8L960 414L960 541L937.2 541C914.3 541 868.7 541 823 541C777.3 541 731.7 541 686 541C640.3 541 594.7 541 548.8 541C503 541 457 541 411.2 541C365.3 541 319.7 541 274 541C228.3 541 182.7 541 137 541C91.3 541 45.7 541 22.8 541L0 541Z" fill="#2b70b2"></path>
</svg>
