<svg id="visual" viewBox="0 0 1920 1080" width="1920" height="1080" xmlns="http://www.w3.org/2000/svg" xmlns:xlink="http://www.w3.org/1999/xlink" version="1.1"><path d="M0 698L240 705L480 683L720 710L960 722L1200 650L1440 765L1680 745L1920 673L1920 1081L1680 1081L1440 1081L1200 1081L960 1081L720 1081L480 1081L240 1081L0 1081Z" fill="#7abce6"></path><path d="M0 720L240 779L480 783L720 816L960 750L1200 734L1440 721L1680 779L1920 712L1920 1081L1680 1081L1440 1081L1200 1081L960 1081L720 1081L480 1081L240 1081L0 1081Z" fill="#6fa8d6"></path></svg>
