<svg id="visual" viewBox="0 0 1080 1920" width="1080" height="1920" xmlns="http://www.w3.org/2000/svg" xmlns:xlink="http://www.w3.org/1999/xlink" version="1.1"><path d="M0 1242L135 1255L270 1215L405 1262L540 1284L675 1156L810 1361L945 1325L1080 1197L1080 1921L945 1921L810 1921L675 1921L540 1921L405 1921L270 1921L135 1921L0 1921Z" fill="#7abce6"></path><path d="M0 1280L135 1386L270 1393L405 1452L540 1335L675 1306L810 1282L945 1386L1080 1266L1080 1921L945 1921L810 1921L675 1921L540 1921L405 1921L270 1921L135 1921L0 1921Z" fill="#6fa8d6"></path><path d="M0 1454L135 1417L270 1415L405 1400L540 1379L675 1417L810 1432L945 1393L1080 1385L1080 1921L945 1921L810 1921L675 1921L540 1921L405 1921L270 1921L135 1921L0 1921Z" fill="#6695c5"></path><path d="M0 1636L135 1472L270 1598L405 1520L540 1496L675 1547L810 1633L945 1648L1080 1472L1080 1921L945 1921L810 1921L675 1921L540 1921L405 1921L270 1921L135 1921L0 1921Z" fill="#5e81b3"></path><path d="M0 1671L135 1684L270 1643L405 1723L540 1668L675 1753L810 1743L945 1686L1080 1608L1080 1921L945 1921L810 1921L675 1921L540 1921L405 1921L270 1921L135 1921L0 1921Z" fill="#576fa1"></path><path d="M0 1809L135 1719L270 1846L405 1717L540 1812L675 1848L810 1828L945 1786L1080 1795L1080 1921L945 1921L810 1921L675 1921L540 1921L405 1921L270 1921L135 1921L0 1921Z" fill="#505c8f"></path></svg>