<svg id="visual" viewBox="0 0 1920 1080" width="1920" height="1080" xmlns="http://www.w3.org/2000/svg" xmlns:xlink="http://www.w3.org/1999/xlink" version="1.1"><path d="M0 817L240 796L480 795L720 787L960 775L1200 796L1440 805L1680 783L1920 779L1920 1081L1680 1081L1440 1081L1200 1081L960 1081L720 1081L480 1081L240 1081L0 1081Z" fill="#6695c5"></path><path d="M0 920L240 828L480 898L720 854L960 841L1200 869L1440 918L1680 927L1920 827L1920 1081L1680 1081L1440 1081L1200 1081L960 1081L720 1081L480 1081L240 1081L0 1081Z" fill="#5e81b3"></path></svg>
