<svg id="visual" viewBox="0 0 1920 1080" width="1920" height="1080" xmlns="http://www.w3.org/2000/svg" xmlns:xlink="http://www.w3.org/1999/xlink" version="1.1"><path d="M0 939L240 947L480 924L720 969L960 938L1200 986L1440 980L1680 948L1920 904L1920 1081L1680 1081L1440 1081L1200 1081L960 1081L720 1081L480 1081L240 1081L0 1081Z" fill="#576fa1"></path><path d="M0 1017L240 967L480 1038L720 965L960 1019L1200 1039L1440 1028L1680 1004L1920 1009L1920 1081L1680 1081L1440 1081L1200 1081L960 1081L720 1081L480 1081L240 1081L0 1081Z" fill="#505c8f"></path></svg>
