<svg id="visual" viewBox="0 0 960 540" width="960" height="540" xmlns="http://www.w3.org/2000/svg" xmlns:xlink="http://www.w3.org/1999/xlink" version="1.1"><path d="M0 139L22.8 143.8C45.7 148.7 91.3 158.3 137 160C182.7 161.7 228.3 155.3 274 155.3C319.7 155.3 365.3 161.7 411.2 173.3C457 185 503 202 548.8 203.8C594.7 205.7 640.3 192.3 686 189.5C731.7 186.7 777.3 194.3 823 193.2C868.7 192 914.3 182 937.2 177L960 172L960 0L937.2 0C914.3 0 868.7 0 823 0C777.3 0 731.7 0 686 0C640.3 0 594.7 0 548.8 0C503 0 457 0 411.2 0C365.3 0 319.7 0 274 0C228.3 0 182.7 0 137 0C91.3 0 45.7 0 22.8 0L0 0Z" fill="#001220"></path><path d="M0 151L22.8 145.3C45.7 139.7 91.3 128.3 137 130.7C182.7 133 228.3 149 274 148.3C319.7 147.7 365.3 130.3 411.2 120.8C457 111.3 503 109.7 548.8 116.5C594.7 123.3 640.3 138.7 686 143C731.7 147.3 777.3 140.7 823 137.7C868.7 134.7 914.3 135.3 937.2 135.7L960 136L960 0L937.2 0C914.3 0 868.7 0 823 0C777.3 0 731.7 0 686 0C640.3 0 594.7 0 548.8 0C503 0 457 0 411.2 0C365.3 0 319.7 0 274 0C228.3 0 182.7 0 137 0C91.3 0 45.7 0 22.8 0L0 0Z" fill="#0f243a"></path><path d="M0 114L22.8 119C45.7 124 91.3 134 137 131.5C182.7 129 228.3 114 274 111.8C319.7 109.7 365.3 120.3 411.2 122.5C457 124.7 503 118.3 548.8 115.2C594.7 112 640.3 112 686 115C731.7 118 777.3 124 823 120.5C868.7 117 914.3 104 937.2 97.5L960 91L960 0L937.2 0C914.3 0 868.7 0 823 0C777.3 0 731.7 0 686 0C640.3 0 594.7 0 548.8 0C503 0 457 0 411.2 0C365.3 0 319.7 0 274 0C228.3 0 182.7 0 137 0C91.3 0 45.7 0 22.8 0L0 0Z" fill="#213655"></path><path d="M0 57L22.8 60.3C45.7 63.7 91.3 70.3 137 76.2C182.7 82 228.3 87 274 91.2C319.7 95.3 365.3 98.7 411.2 96.5C457 94.3 503 86.7 548.8 85.2C594.7 83.7 640.3 88.3 686 87.5C731.7 86.7 777.3 80.3 823 77.3C868.7 74.3 914.3 74.7 937.2 74.8L960 75L960 0L937.2 0C914.3 0 868.7 0 823 0C777.3 0 731.7 0 686 0C640.3 0 594.7 0 548.8 0C503 0 457 0 411.2 0C365.3 0 319.7 0 274 0C228.3 0 182.7 0 137 0C91.3 0 45.7 0 22.8 0L0 0Z" fill="#374972"></path><path d="M0 22L22.8 23.8C45.7 25.7 91.3 29.3 137 32C182.7 34.7 228.3 36.3 274 36.3C319.7 36.3 365.3 34.7 411.2 35.5C457 36.3 503 39.7 548.8 42C594.7 44.3 640.3 45.7 686 49.2C731.7 52.7 777.3 58.3 823 57.3C868.7 56.3 914.3 48.7 937.2 44.8L960 41L960 0L937.2 0C914.3 0 868.7 0 823 0C777.3 0 731.7 0 686 0C640.3 0 594.7 0 548.8 0C503 0 457 0 411.2 0C365.3 0 319.7 0 274 0C228.3 0 182.7 0 137 0C91.3 0 45.7 0 22.8 0L0 0Z" fill="#505c8f"></path></svg>