<svg id="visual" viewBox="0 0 540 960" width="540" height="960" xmlns="http://www.w3.org/2000/svg" xmlns:xlink="http://www.w3.org/1999/xlink" version="1.1"><path d="M0 615L60 618L120 580L180 654L240 628L300 577L360 654L420 638L480 595L540 616L540 0L480 0L420 0L360 0L300 0L240 0L180 0L120 0L60 0L0 0Z" fill="#001220"></path><path d="M0 511L60 508L120 473L180 539L240 507L300 539L360 531L420 483L480 517L540 481L540 0L480 0L420 0L360 0L300 0L240 0L180 0L120 0L60 0L0 0Z" fill="#0c2034"></path><path d="M0 392L60 380L120 445L180 452L240 450L300 412L360 444L420 408L480 393L540 426L540 0L480 0L420 0L360 0L300 0L240 0L180 0L120 0L60 0L0 0Z" fill="#192f4a"></path><path d="M0 340L60 333L120 307L180 295L240 335L300 340L360 351L420 303L480 307L540 349L540 0L480 0L420 0L360 0L300 0L240 0L180 0L120 0L60 0L0 0Z" fill="#293e60"></path><path d="M0 200L60 235L120 202L180 215L240 247L300 219L360 216L420 233L480 232L540 196L540 0L480 0L420 0L360 0L300 0L240 0L180 0L120 0L60 0L0 0Z" fill="#3c4d78"></path><path d="M0 124L60 132L120 129L180 142L240 135L300 120L360 117L420 147L480 141L540 103L540 0L480 0L420 0L360 0L300 0L240 0L180 0L120 0L60 0L0 0Z" fill="#505c8f"></path></svg>