<svg id="visual" viewBox="0 0 960 540" width="960" height="540" xmlns="http://www.w3.org/2000/svg" xmlns:xlink="http://www.w3.org/1999/xlink" version="1.1"><path d="M0 345L107 347L213 326L320 368L427 353L533 324L640 368L747 358L853 334L960 346L960 0L853 0L747 0L640 0L533 0L427 0L320 0L213 0L107 0L0 0Z" fill="#001220"></path><path d="M0 287L107 285L213 266L320 303L427 285L533 303L640 298L747 271L853 291L960 270L960 0L853 0L747 0L640 0L533 0L427 0L320 0L213 0L107 0L0 0Z" fill="#0c2034"></path><path d="M0 220L107 213L213 250L320 254L427 253L533 231L640 249L747 229L853 220L960 239L960 0L853 0L747 0L640 0L533 0L427 0L320 0L213 0L107 0L0 0Z" fill="#192f4a"></path><path d="M0 191L107 187L213 172L320 166L427 188L533 191L640 197L747 170L853 172L960 196L960 0L853 0L747 0L640 0L533 0L427 0L320 0L213 0L107 0L0 0Z" fill="#293e60"></path><path d="M0 112L107 132L213 113L320 121L427 138L533 123L640 121L747 131L853 130L960 110L960 0L853 0L747 0L640 0L533 0L427 0L320 0L213 0L107 0L0 0Z" fill="#3c4d78"></path><path d="M0 69L107 74L213 72L320 79L427 75L533 67L640 66L747 82L853 79L960 58L960 0L853 0L747 0L640 0L533 0L427 0L320 0L213 0L107 0L0 0Z" fill="#505c8f"></path></svg>