<svg id="visual" viewBox="0 0 540 960" width="540" height="960" xmlns="http://www.w3.org/2000/svg" xmlns:xlink="http://www.w3.org/1999/xlink" version="1.1"><path d="M0 248L12.8 256.7C25.7 265.3 51.3 282.7 77 285.5C102.7 288.3 128.3 276.7 154 276.5C179.7 276.3 205.3 287.7 231.2 308.3C257 329 283 359 308.8 362.3C334.7 365.7 360.3 342.3 386 337.5C411.7 332.7 437.3 346.3 463 344.2C488.7 342 514.3 324 527.2 315L540 306L540 0L527.2 0C514.3 0 488.7 0 463 0C437.3 0 411.7 0 386 0C360.3 0 334.7 0 308.8 0C283 0 257 0 231.2 0C205.3 0 179.7 0 154 0C128.3 0 102.7 0 77 0C51.3 0 25.7 0 12.8 0L0 0Z" fill="#001220"></path><path d="M0 269L12.8 259C25.7 249 51.3 229 77 233.2C102.7 237.3 128.3 265.7 154 264.5C179.7 263.3 205.3 232.7 231.2 215.8C257 199 283 196 308.8 208C334.7 220 360.3 247 386 254.7C411.7 262.3 437.3 250.7 463 245.5C488.7 240.3 514.3 241.7 527.2 242.3L540 243L540 0L527.2 0C514.3 0 488.7 0 463 0C437.3 0 411.7 0 386 0C360.3 0 334.7 0 308.8 0C283 0 257 0 231.2 0C205.3 0 179.7 0 154 0C128.3 0 102.7 0 77 0C51.3 0 25.7 0 12.8 0L0 0Z" fill="#0f243a"></path><path d="M0 203L12.8 211.8C25.7 220.7 51.3 238.3 77 233.8C102.7 229.3 128.3 202.7 154 199C179.7 195.3 205.3 214.7 231.2 218.7C257 222.7 283 211.3 308.8 205.5C334.7 199.7 360.3 199.3 386 204.7C411.7 210 437.3 221 463 215C488.7 209 514.3 186 527.2 174.5L540 163L540 0L527.2 0C514.3 0 488.7 0 463 0C437.3 0 411.7 0 386 0C360.3 0 334.7 0 308.8 0C283 0 257 0 231.2 0C205.3 0 179.7 0 154 0C128.3 0 102.7 0 77 0C51.3 0 25.7 0 12.8 0L0 0Z" fill="#213655"></path><path d="M0 102L12.8 107.8C25.7 113.7 51.3 125.3 77 135.8C102.7 146.3 128.3 155.7 154 163C179.7 170.3 205.3 175.7 231.2 171.7C257 167.7 283 154.3 308.8 151.8C334.7 149.3 360.3 157.7 386 156.3C411.7 155 437.3 144 463 138.8C488.7 133.7 514.3 134.3 527.2 134.7L540 135L540 0L527.2 0C514.3 0 488.7 0 463 0C437.3 0 411.7 0 386 0C360.3 0 334.7 0 308.8 0C283 0 257 0 231.2 0C205.3 0 179.7 0 154 0C128.3 0 102.7 0 77 0C51.3 0 25.7 0 12.8 0L0 0Z" fill="#374972"></path><path d="M0 40L12.8 43.2C25.7 46.3 51.3 52.7 77 57.5C102.7 62.3 128.3 65.7 154 65.8C179.7 66 205.3 63 231.2 64.3C257 65.7 283 71.3 308.8 75.5C334.7 79.7 360.3 82.3 386 88.5C411.7 94.7 437.3 104.3 463 102.5C488.7 100.7 514.3 87.3 527.2 80.7L540 74L540 0L527.2 0C514.3 0 488.7 0 463 0C437.3 0 411.7 0 386 0C360.3 0 334.7 0 308.8 0C283 0 257 0 231.2 0C205.3 0 179.7 0 154 0C128.3 0 102.7 0 77 0C51.3 0 25.7 0 12.8 0L0 0Z" fill="#505c8f"></path></svg>